{
	"asset":{
		"generator":"Khronos glTF Blender I/O v5.0.21",
		"version":"2.0"
	},
	"scene":0,
	"scenes":[
		{
			"name":"Scene",
			"nodes":[
				0
			]
		}
	],
	"nodes":[
		{
			"mesh":0,
			"name":"path1",
			"rotation":[
				0.7071068286895752,
				0,
				0,
				0.7071068286895752
			]
		}
	],
	"materials":[
		{
			"doubleSided":true,
			"name":"SVGMat"
		}
	],
	"meshes":[
		{
			"name":"path1",
			"primitives":[
				{
					"attributes":{
						"POSITION":0,
						"NORMAL":1,
						"TEXCOORD_0":2
					},
					"indices":3,
					"material":0
				}
			]
		}
	],
	"accessors":[
		{
			"bufferView":0,
			"componentType":5126,
			"count":10735,
			"max":[
				0.11075832694768906,
				0.009999999776482582,
				0.07376372814178467
			],
			"min":[
				-0.10051523149013519,
				-0.009999999776482582,
				-0.07595905661582947
			],
			"type":"VEC3"
		},
		{
			"bufferView":1,
			"componentType":5126,
			"count":10735,
			"type":"VEC3"
		},
		{
			"bufferView":2,
			"componentType":5126,
			"count":10735,
			"type":"VEC2"
		},
		{
			"bufferView":3,
			"componentType":5123,
			"count":32052,
			"type":"SCALAR"
		}
	],
	"bufferViews":[
		{
			"buffer":0,
			"byteLength":128820,
			"byteOffset":0,
			"target":34962
		},
		{
			"buffer":0,
			"byteLength":128820,
			"byteOffset":128820,
			"target":34962
		},
		{
			"buffer":0,
			"byteLength":85880,
			"byteOffset":257640,
			"target":34962
		},
		{
			"buffer":0,
			"byteLength":64104,
			"byteOffset":343520,
			"target":34963
		}
	],
	"buffers":[
		{
			"byteLength":407624,
			"uri":"artsci_webring_logo.bin"
		}
	]
}
