{
	"asset":{
		"generator":"Khronos glTF Blender I/O v5.0.21",
		"version":"2.0"
	},
	"scene":0,
	"scenes":[
		{
			"name":"Scene",
			"nodes":[
				0
			]
		}
	],
	"nodes":[
		{
			"mesh":0,
			"name":"path1",
			"rotation":[
				0.7071068286895752,
				0,
				0,
				0.7071068286895752
			]
		}
	],
	"materials":[
		{
			"doubleSided":true,
			"name":"SVGMat"
		}
	],
	"meshes":[
		{
			"name":"path1",
			"primitives":[
				{
					"attributes":{
						"POSITION":0,
						"NORMAL":1,
						"TEXCOORD_0":2
					},
					"indices":3,
					"material":0
				}
			]
		}
	],
	"accessors":[
		{
			"bufferView":0,
			"componentType":5126,
			"count":7645,
			"max":[
				0.10924791544675827,
				0.009999999776482582,
				0.0795583575963974
			],
			"min":[
				-0.09977440536022186,
				-0.009999999776482582,
				-0.05395353585481644
			],
			"type":"VEC3"
		},
		{
			"bufferView":1,
			"componentType":5126,
			"count":7645,
			"type":"VEC3"
		},
		{
			"bufferView":2,
			"componentType":5126,
			"count":7645,
			"type":"VEC2"
		},
		{
			"bufferView":3,
			"componentType":5123,
			"count":22776,
			"type":"SCALAR"
		}
	],
	"bufferViews":[
		{
			"buffer":0,
			"byteLength":91740,
			"byteOffset":0,
			"target":34962
		},
		{
			"buffer":0,
			"byteLength":91740,
			"byteOffset":91740,
			"target":34962
		},
		{
			"buffer":0,
			"byteLength":61160,
			"byteOffset":183480,
			"target":34962
		},
		{
			"buffer":0,
			"byteLength":45552,
			"byteOffset":244640,
			"target":34963
		}
	],
	"buffers":[
		{
			"byteLength":290192,
			"uri":"bcom_webring_logo.bin"
		}
	]
}
