{
	"asset":{
		"generator":"Khronos glTF Blender I/O v5.0.21",
		"version":"2.0"
	},
	"scene":0,
	"scenes":[
		{
			"name":"Scene",
			"nodes":[
				0
			]
		}
	],
	"nodes":[
		{
			"mesh":0,
			"name":"path1",
			"rotation":[
				0.5,
				0.5,
				-0.5,
				0.5
			]
		}
	],
	"materials":[
		{
			"doubleSided":true,
			"name":"SVGMat"
		}
	],
	"meshes":[
		{
			"name":"path1",
			"primitives":[
				{
					"attributes":{
						"POSITION":0,
						"NORMAL":1,
						"TEXCOORD_0":2
					},
					"indices":3,
					"material":0
				}
			]
		}
	],
	"accessors":[
		{
			"bufferView":0,
			"componentType":5126,
			"count":24720,
			"max":[
				0.11368420720100403,
				0.009999999776482582,
				0.0787249505519867
			],
			"min":[
				-0.09710228443145752,
				-0.009999999776482582,
				-0.0617351233959198
			],
			"type":"VEC3"
		},
		{
			"bufferView":1,
			"componentType":5126,
			"count":24720,
			"type":"VEC3"
		},
		{
			"bufferView":2,
			"componentType":5126,
			"count":24720,
			"type":"VEC2"
		},
		{
			"bufferView":3,
			"componentType":5123,
			"count":73824,
			"type":"SCALAR"
		}
	],
	"bufferViews":[
		{
			"buffer":0,
			"byteLength":296640,
			"byteOffset":0,
			"target":34962
		},
		{
			"buffer":0,
			"byteLength":296640,
			"byteOffset":296640,
			"target":34962
		},
		{
			"buffer":0,
			"byteLength":197760,
			"byteOffset":593280,
			"target":34962
		},
		{
			"buffer":0,
			"byteLength":147648,
			"byteOffset":791040,
			"target":34963
		}
	],
	"buffers":[
		{
			"byteLength":938688,
			"uri":"cs_webring_logo.bin"
		}
	]
}
