{
	"asset":{
		"generator":"Khronos glTF Blender I/O v5.0.21",
		"version":"2.0"
	},
	"scene":0,
	"scenes":[
		{
			"name":"Scene",
			"nodes":[
				0
			]
		}
	],
	"nodes":[
		{
			"mesh":0,
			"name":"path1",
			"rotation":[
				0.5,
				0.5,
				-0.5,
				0.5
			]
		}
	],
	"materials":[
		{
			"doubleSided":true,
			"name":"SVGMat"
		}
	],
	"meshes":[
		{
			"name":"path1",
			"primitives":[
				{
					"attributes":{
						"POSITION":0,
						"NORMAL":1,
						"TEXCOORD_0":2
					},
					"indices":3,
					"material":0
				}
			]
		}
	],
	"accessors":[
		{
			"bufferView":0,
			"componentType":5126,
			"count":4586,
			"max":[
				0.10395686328411102,
				0.009999999776482582,
				0.06496831774711609
			],
			"min":[
				-0.10152623802423477,
				-0.009999999776482582,
				-0.059573255479335785
			],
			"type":"VEC3"
		},
		{
			"bufferView":1,
			"componentType":5126,
			"count":4586,
			"type":"VEC3"
		},
		{
			"bufferView":2,
			"componentType":5126,
			"count":4586,
			"type":"VEC2"
		},
		{
			"bufferView":3,
			"componentType":5123,
			"count":13716,
			"type":"SCALAR"
		}
	],
	"bufferViews":[
		{
			"buffer":0,
			"byteLength":55032,
			"byteOffset":0,
			"target":34962
		},
		{
			"buffer":0,
			"byteLength":55032,
			"byteOffset":55032,
			"target":34962
		},
		{
			"buffer":0,
			"byteLength":36688,
			"byteOffset":110064,
			"target":34962
		},
		{
			"buffer":0,
			"byteLength":27432,
			"byteOffset":146752,
			"target":34963
		}
	],
	"buffers":[
		{
			"byteLength":174184,
			"uri":"ece_webring_logo.bin"
		}
	]
}
