{
	"asset":{
		"generator":"Khronos glTF Blender I/O v5.0.21",
		"version":"2.0"
	},
	"scene":0,
	"scenes":[
		{
			"name":"Scene",
			"nodes":[
				0,
				1,
				2,
				3,
				4,
				5,
				6
			]
		}
	],
	"nodes":[
		{
			"mesh":0,
			"name":"path7",
			"rotation":[
				0.7071068286895752,
				0,
				0,
				0.7071068286895752
			],
			"translation":[
				0.008784156292676926,
				-0.014528661035001278,
				0.0036597847938537598
			]
		},
		{
			"mesh":1,
			"name":"path6",
			"rotation":[
				0.7071068286895752,
				0,
				0,
				0.7071068286895752
			],
			"translation":[
				0.01782514527440071,
				-0.08087379485368729,
				0.0036597847938537598
			]
		},
		{
			"mesh":2,
			"name":"path5",
			"rotation":[
				0.7071068286895752,
				0,
				0,
				0.7071068286895752
			],
			"translation":[
				0.0019801738671958447,
				0.0014144489541649818,
				0.0036597847938537598
			]
		},
		{
			"mesh":3,
			"name":"path4",
			"rotation":[
				0.7071068286895752,
				0,
				0,
				0.7071068286895752
			],
			"translation":[
				0.017120327800512314,
				-0.10448003560304642,
				0.0036597847938537598
			]
		},
		{
			"mesh":4,
			"name":"path3",
			"rotation":[
				0.7071068286895752,
				0,
				0,
				0.7071068286895752
			],
			"translation":[
				0.00497955409809947,
				-0.008685930632054806,
				0.0036597847938537598
			]
		},
		{
			"mesh":5,
			"name":"path2",
			"rotation":[
				0.7071068286895752,
				0,
				0,
				0.7071068286895752
			],
			"translation":[
				0.0019879224710166454,
				0.003710702992975712,
				0.0036597847938537598
			]
		},
		{
			"mesh":6,
			"name":"path1",
			"rotation":[
				0.7071068286895752,
				0,
				0,
				0.7071068286895752
			],
			"translation":[
				0.009827617555856705,
				-0.01142676081508398,
				0.0036597847938537598
			]
		}
	],
	"materials":[
		{
			"doubleSided":true,
			"name":"SVGMat.001"
		},
		{
			"doubleSided":true,
			"name":"SVGMat.002"
		},
		{
			"doubleSided":true,
			"name":"SVGMat.003"
		},
		{
			"doubleSided":true,
			"name":"SVGMat.004"
		},
		{
			"doubleSided":true,
			"name":"SVGMat.005"
		},
		{
			"doubleSided":true,
			"name":"SVGMat.006"
		},
		{
			"doubleSided":true,
			"name":"SVGMat.007"
		}
	],
	"meshes":[
		{
			"name":"path7",
			"primitives":[
				{
					"attributes":{
						"POSITION":0,
						"NORMAL":1,
						"TEXCOORD_0":2
					},
					"indices":3,
					"material":0
				}
			]
		},
		{
			"name":"path6",
			"primitives":[
				{
					"attributes":{
						"POSITION":4,
						"NORMAL":5,
						"TEXCOORD_0":6
					},
					"indices":7,
					"material":1
				}
			]
		},
		{
			"name":"path5",
			"primitives":[
				{
					"attributes":{
						"POSITION":8,
						"NORMAL":9,
						"TEXCOORD_0":10
					},
					"indices":11,
					"material":2
				}
			]
		},
		{
			"name":"path4",
			"primitives":[
				{
					"attributes":{
						"POSITION":12,
						"NORMAL":13,
						"TEXCOORD_0":14
					},
					"indices":15,
					"material":3
				}
			]
		},
		{
			"name":"path3",
			"primitives":[
				{
					"attributes":{
						"POSITION":16,
						"NORMAL":17,
						"TEXCOORD_0":18
					},
					"indices":19,
					"material":4
				}
			]
		},
		{
			"name":"path2",
			"primitives":[
				{
					"attributes":{
						"POSITION":20,
						"NORMAL":21,
						"TEXCOORD_0":22
					},
					"indices":23,
					"material":5
				}
			]
		},
		{
			"name":"path1",
			"primitives":[
				{
					"attributes":{
						"POSITION":24,
						"NORMAL":25,
						"TEXCOORD_0":26
					},
					"indices":27,
					"material":6
				}
			]
		}
	],
	"accessors":[
		{
			"bufferView":0,
			"componentType":5126,
			"count":2353,
			"max":[
				0.08270391076803207,
				0.009999999776482582,
				0.10367558151483536
			],
			"min":[
				-0.09782031178474426,
				-0.009999999776482582,
				-0.12769004702568054
			],
			"type":"VEC3"
		},
		{
			"bufferView":1,
			"componentType":5126,
			"count":2353,
			"type":"VEC3"
		},
		{
			"bufferView":2,
			"componentType":5126,
			"count":2353,
			"type":"VEC2"
		},
		{
			"bufferView":3,
			"componentType":5123,
			"count":6948,
			"type":"SCALAR"
		},
		{
			"bufferView":4,
			"componentType":5126,
			"count":1764,
			"max":[
				0.062119901180267334,
				0.009999999776482582,
				0.05674274265766144
			],
			"min":[
				-0.12306459248065948,
				-0.009999999776482582,
				-0.20912900567054749
			],
			"type":"VEC3"
		},
		{
			"bufferView":5,
			"componentType":5126,
			"count":1764,
			"type":"VEC3"
		},
		{
			"bufferView":6,
			"componentType":5126,
			"count":1764,
			"type":"VEC2"
		},
		{
			"bufferView":7,
			"componentType":5123,
			"count":5076,
			"type":"SCALAR"
		},
		{
			"bufferView":8,
			"componentType":5126,
			"count":55602,
			"max":[
				0.0895637795329094,
				0.009999999776482582,
				0.1199837401509285
			],
			"min":[
				-0.09130050241947174,
				-0.009999999776482582,
				-0.11205072700977325
			],
			"type":"VEC3"
		},
		{
			"bufferView":9,
			"componentType":5126,
			"count":55602,
			"type":"VEC3"
		},
		{
			"bufferView":10,
			"componentType":5126,
			"count":55602,
			"type":"VEC2"
		},
		{
			"bufferView":11,
			"componentType":5123,
			"count":157608,
			"type":"SCALAR"
		},
		{
			"bufferView":12,
			"componentType":5126,
			"count":2226,
			"max":[
				0.06564972549676895,
				0.009999999776482582,
				0.03419463336467743
			],
			"min":[
				-0.11215382069349289,
				-0.009999999776482582,
				-0.04056297615170479
			],
			"type":"VEC3"
		},
		{
			"bufferView":13,
			"componentType":5126,
			"count":2226,
			"type":"VEC3"
		},
		{
			"bufferView":14,
			"componentType":5126,
			"count":2226,
			"type":"VEC2"
		},
		{
			"bufferView":15,
			"componentType":5123,
			"count":6348,
			"type":"SCALAR"
		},
		{
			"bufferView":16,
			"componentType":5126,
			"count":2394,
			"max":[
				0.09183935821056366,
				0.009999999776482582,
				0.11658485233783722
			],
			"min":[
				-0.09957187622785568,
				-0.009999999776482582,
				-0.12678809463977814
			],
			"type":"VEC3"
		},
		{
			"bufferView":17,
			"componentType":5126,
			"count":2394,
			"type":"VEC3"
		},
		{
			"bufferView":18,
			"componentType":5126,
			"count":2394,
			"type":"VEC2"
		},
		{
			"bufferView":19,
			"componentType":5123,
			"count":7140,
			"type":"SCALAR"
		},
		{
			"bufferView":20,
			"componentType":5126,
			"count":52820,
			"max":[
				0.09485021233558655,
				0.009999999776482582,
				0.12929469347000122
			],
			"min":[
				-0.09661293029785156,
				-0.009999999776482582,
				-0.11474134027957916
			],
			"type":"VEC3"
		},
		{
			"bufferView":21,
			"componentType":5126,
			"count":52820,
			"type":"VEC3"
		},
		{
			"bufferView":22,
			"componentType":5126,
			"count":52820,
			"type":"VEC2"
		},
		{
			"bufferView":23,
			"componentType":5123,
			"count":150408,
			"type":"SCALAR"
		},
		{
			"bufferView":24,
			"componentType":5126,
			"count":1674,
			"max":[
				0.09741634130477905,
				0.009999999776482582,
				0.1270090788602829
			],
			"min":[
				-0.11465846747159958,
				-0.009999999776482582,
				-0.13939069211483002
			],
			"type":"VEC3"
		},
		{
			"bufferView":25,
			"componentType":5126,
			"count":1674,
			"type":"VEC3"
		},
		{
			"bufferView":26,
			"componentType":5126,
			"count":1674,
			"type":"VEC2"
		},
		{
			"bufferView":27,
			"componentType":5123,
			"count":4956,
			"type":"SCALAR"
		}
	],
	"bufferViews":[
		{
			"buffer":0,
			"byteLength":28236,
			"byteOffset":0,
			"target":34962
		},
		{
			"buffer":0,
			"byteLength":28236,
			"byteOffset":28236,
			"target":34962
		},
		{
			"buffer":0,
			"byteLength":18824,
			"byteOffset":56472,
			"target":34962
		},
		{
			"buffer":0,
			"byteLength":13896,
			"byteOffset":75296,
			"target":34963
		},
		{
			"buffer":0,
			"byteLength":21168,
			"byteOffset":89192,
			"target":34962
		},
		{
			"buffer":0,
			"byteLength":21168,
			"byteOffset":110360,
			"target":34962
		},
		{
			"buffer":0,
			"byteLength":14112,
			"byteOffset":131528,
			"target":34962
		},
		{
			"buffer":0,
			"byteLength":10152,
			"byteOffset":145640,
			"target":34963
		},
		{
			"buffer":0,
			"byteLength":667224,
			"byteOffset":155792,
			"target":34962
		},
		{
			"buffer":0,
			"byteLength":667224,
			"byteOffset":823016,
			"target":34962
		},
		{
			"buffer":0,
			"byteLength":444816,
			"byteOffset":1490240,
			"target":34962
		},
		{
			"buffer":0,
			"byteLength":315216,
			"byteOffset":1935056,
			"target":34963
		},
		{
			"buffer":0,
			"byteLength":26712,
			"byteOffset":2250272,
			"target":34962
		},
		{
			"buffer":0,
			"byteLength":26712,
			"byteOffset":2276984,
			"target":34962
		},
		{
			"buffer":0,
			"byteLength":17808,
			"byteOffset":2303696,
			"target":34962
		},
		{
			"buffer":0,
			"byteLength":12696,
			"byteOffset":2321504,
			"target":34963
		},
		{
			"buffer":0,
			"byteLength":28728,
			"byteOffset":2334200,
			"target":34962
		},
		{
			"buffer":0,
			"byteLength":28728,
			"byteOffset":2362928,
			"target":34962
		},
		{
			"buffer":0,
			"byteLength":19152,
			"byteOffset":2391656,
			"target":34962
		},
		{
			"buffer":0,
			"byteLength":14280,
			"byteOffset":2410808,
			"target":34963
		},
		{
			"buffer":0,
			"byteLength":633840,
			"byteOffset":2425088,
			"target":34962
		},
		{
			"buffer":0,
			"byteLength":633840,
			"byteOffset":3058928,
			"target":34962
		},
		{
			"buffer":0,
			"byteLength":422560,
			"byteOffset":3692768,
			"target":34962
		},
		{
			"buffer":0,
			"byteLength":300816,
			"byteOffset":4115328,
			"target":34963
		},
		{
			"buffer":0,
			"byteLength":20088,
			"byteOffset":4416144,
			"target":34962
		},
		{
			"buffer":0,
			"byteLength":20088,
			"byteOffset":4436232,
			"target":34962
		},
		{
			"buffer":0,
			"byteLength":13392,
			"byteOffset":4456320,
			"target":34962
		},
		{
			"buffer":0,
			"byteLength":9912,
			"byteOffset":4469712,
			"target":34963
		}
	],
	"buffers":[
		{
			"byteLength":4479624,
			"uri":"QU_Model.bin"
		}
	]
}
