{
	"asset":{
		"generator":"Khronos glTF Blender I/O v5.0.21",
		"version":"2.0"
	},
	"scene":0,
	"scenes":[
		{
			"name":"Scene",
			"nodes":[
				0
			]
		}
	],
	"nodes":[
		{
			"mesh":0,
			"name":"path1",
			"rotation":[
				0.7071068286895752,
				0,
				0,
				0.7071068286895752
			]
		}
	],
	"materials":[
		{
			"doubleSided":true,
			"name":"SVGMat"
		}
	],
	"meshes":[
		{
			"name":"path1",
			"primitives":[
				{
					"attributes":{
						"POSITION":0,
						"NORMAL":1,
						"TEXCOORD_0":2
					},
					"indices":3,
					"material":0
				}
			]
		}
	],
	"accessors":[
		{
			"bufferView":0,
			"componentType":5126,
			"count":9213,
			"max":[
				0.0943208634853363,
				0.009999999776482582,
				0.11078129708766937
			],
			"min":[
				-0.09518497437238693,
				-0.009999999776482582,
				-0.11730925738811493
			],
			"type":"VEC3"
		},
		{
			"bufferView":1,
			"componentType":5126,
			"count":9213,
			"type":"VEC3"
		},
		{
			"bufferView":2,
			"componentType":5126,
			"count":9213,
			"type":"VEC2"
		},
		{
			"bufferView":3,
			"componentType":5123,
			"count":27552,
			"type":"SCALAR"
		}
	],
	"bufferViews":[
		{
			"buffer":0,
			"byteLength":110556,
			"byteOffset":0,
			"target":34962
		},
		{
			"buffer":0,
			"byteLength":110556,
			"byteOffset":110556,
			"target":34962
		},
		{
			"buffer":0,
			"byteLength":73704,
			"byteOffset":221112,
			"target":34962
		},
		{
			"buffer":0,
			"byteLength":55104,
			"byteOffset":294816,
			"target":34963
		}
	],
	"buffers":[
		{
			"byteLength":349920,
			"uri":"QU_Webring.bin"
		}
	]
}
